<?xml version="1.0" standalone="no"?><svg xmlns="http://www.w3.org/2000/svg" viewBox="0 0 1440 320"><path fill="#ffbc42" fill-opacity="1" d="M0,256L20,224C40,192,80,128,120,122.7C160,117,200,171,240,170.7C280,171,320,117,360,80C400,43,440,21,480,21.3C520,21,560,43,600,58.7C640,75,680,85,720,101.3C760,117,800,139,840,133.3C880,128,920,96,960,106.7C1000,117,1040,171,1080,202.7C1120,235,1160,245,1200,234.7C1240,224,1280,192,1320,154.7C1360,117,1400,75,1420,53.3L1440,32L1440,0L1420,0C1400,0,1360,0,1320,0C1280,0,1240,0,1200,0C1160,0,1120,0,1080,0C1040,0,1000,0,960,0C920,0,880,0,840,0C800,0,760,0,720,0C680,0,640,0,600,0C560,0,520,0,480,0C440,0,400,0,360,0C320,0,280,0,240,0C200,0,160,0,120,0C80,0,40,0,20,0L0,0Z"></path></svg>